HIERARCHY
ROOT Hips
{
  OFFSET 0.0273292 -0.436096 0.279869
  CHANNELS 6 Xposition Yposition Zposition Zrotation Xrotation Yrotation
  JOINT LHipJoint
  {
    OFFSET 0 0 0
    CHANNELS 6 Xposition Yposition Zposition Zrotation Xrotation Yrotation
    JOINT LeftUpLeg
    {
      OFFSET 1.36306 -1.79463 0
      CHANNELS 6 Xposition Yposition Zposition Zrotation Xrotation Yrotation
      JOINT LeftLeg
      {
        OFFSET 2.44807 -6.72613 0.000295034
        CHANNELS 6 Xposition Yposition Zposition Zrotation Xrotation Yrotation
        JOINT LeftFoot
        {
          OFFSET 2.5622 -7.03959 3.59965e-05
          CHANNELS 6 Xposition Yposition Zposition Zrotation Xrotation Yrotation
          JOINT LeftToeBase
          {
            OFFSET 0.15764 -0.43311 2.32255
            CHANNELS 6 Xposition Yposition Zposition Zrotation Xrotation Yrotation
            End Site
            {
              OFFSET 0 0 0
            }
          }
        }
      }
    }
  }
  JOINT RHipJoint
  {
    OFFSET 0 0 0
    CHANNELS 6 Xposition Yposition Zposition Zrotation Xrotation Yrotation
    JOINT RightUpLeg
    {
      OFFSET -1.30552 -1.79463 0
      CHANNELS 6 Xposition Yposition Zposition Zrotation Xrotation Yrotation
      JOINT RightLeg
      {
        OFFSET -2.54234 -6.98562 -0.000396375
        CHANNELS 6 Xposition Yposition Zposition Zrotation Xrotation Yrotation
        JOINT RightFoot
        {
          OFFSET -2.56826 -7.05623 -4.47982e-05
          CHANNELS 6 Xposition Yposition Zposition Zrotation Xrotation Yrotation
          JOINT RightToeBase
          {
            OFFSET -0.16473 -0.45259 2.36315
            CHANNELS 6 Xposition Yposition Zposition Zrotation Xrotation Yrotation
            End Site
            {
              OFFSET 0 0 0
            }
          }
        }
      }
    }
  }
  JOINT LowerBack
  {
    OFFSET 0 0 0
    CHANNELS 6 Xposition Yposition Zposition Zrotation Xrotation Yrotation
    JOINT Spine
    {
      OFFSET 0.0282699 2.03559 0
      CHANNELS 6 Xposition Yposition Zposition Zrotation Xrotation Yrotation
      JOINT Spine1
      {
        OFFSET 0.05672 2.04885 -0.04275
        CHANNELS 6 Xposition Yposition Zposition Zrotation Xrotation Yrotation
        JOINT Neck
        {
          OFFSET 0 0 0
          CHANNELS 6 Xposition Yposition Zposition Zrotation Xrotation Yrotation
          JOINT Neck1
          {
            OFFSET -0.05417 1.74624 0.17202
            CHANNELS 6 Xposition Yposition Zposition Zrotation Xrotation Yrotation
            JOINT Head
            {
              OFFSET 0.10407 1.76136 -0.12397
              CHANNELS 6 Xposition Yposition Zposition Zrotation Xrotation Yrotation
              End Site
              {
                OFFSET 0 0 0
              }
            }
          }
        }
        JOINT LeftShoulder
        {
          OFFSET 0 0 0
          CHANNELS 6 Xposition Yposition Zposition Zrotation Xrotation Yrotation
          JOINT LeftArm
          {
            OFFSET 3.36241 1.20089 -0.311211
            CHANNELS 6 Xposition Yposition Zposition Zrotation Xrotation Yrotation
            JOINT LeftForeArm
            {
              OFFSET 4.983 0.000197398 0.000166057
              CHANNELS 6 Xposition Yposition Zposition Zrotation Xrotation Yrotation
              JOINT LeftHand
              {
                OFFSET 3.48356 0 1.87849e-05
                CHANNELS 6 Xposition Yposition Zposition Zrotation Xrotation Yrotation
                JOINT LeftFingerBase
                {
                  OFFSET 0 0 0
                  CHANNELS 6 Xposition Yposition Zposition Zrotation Xrotation Yrotation
                  JOINT LeftHandIndex1
                  {
                    OFFSET 0.71526 0 0
                    CHANNELS 6 Xposition Yposition Zposition Zrotation Xrotation Yrotation
                    End Site
                    {
                      OFFSET 0 0 0
                    }
                  }
                }
                JOINT LThumb
                {
                  OFFSET 0 0 0
                  CHANNELS 6 Xposition Yposition Zposition Zrotation Xrotation Yrotation
                  End Site
                  {
                    OFFSET 0 0 0
                  }
                }
              }
            }
          }
        }
        JOINT RightShoulder
        {
          OFFSET 0 0 0
          CHANNELS 6 Xposition Yposition Zposition Zrotation Xrotation Yrotation
          JOINT RightArm
          {
            OFFSET -3.1366 1.37405 -0.404651
            CHANNELS 6 Xposition Yposition Zposition Zrotation Xrotation Yrotation
            JOINT RightForeArm
            {
              OFFSET -5.2419 -5.8808e-05 -0.000165864
              CHANNELS 6 Xposition Yposition Zposition Zrotation Xrotation Yrotation
              JOINT RightHand
              {
                OFFSET -3.44417 0 -2.00002e-05
                CHANNELS 6 Xposition Yposition Zposition Zrotation Xrotation Yrotation
                JOINT RightFingerBase
                {
                  OFFSET 0 0 0
                  CHANNELS 6 Xposition Yposition Zposition Zrotation Xrotation Yrotation
                  JOINT RightHandIndex1
                  {
                    OFFSET -0.62253 0 0
                    CHANNELS 6 Xposition Yposition Zposition Zrotation Xrotation Yrotation
                    End Site
                    {
                      OFFSET 0 0 0
                    }
                  }
                }
                JOINT RThumb
                {
                  OFFSET 0 0 0
                  CHANNELS 6 Xposition Yposition Zposition Zrotation Xrotation Yrotation
                  End Site
                  {
                    OFFSET 0 0 0
                  }
                }
              }
            }
          }
        }
      }
    }
  }
}
MOTION
Frames:	6
Frame Time:	0.00833333
-0.0655707 2.11882 -0.0652062 0.788545 -2.32954 2.03165 0 0 0 3.72721e-17 7.95139e-16 7.95139e-16 1.36306 -1.79463 2.39735e-08 -16.5058 -1.18502 4.44832 2.44814 -6.72612 -0.00015378 -0.525202 5.66727 -0.101906 2.56219 -7.03959 -4.91952e-05 -3.20637 -3.9449 -1.56474 0.15764 -0.43311 2.32255 1.63997e-15 3.97569e-16 7.95139e-16 0 0 0 3.72721e-17 7.95139e-16 7.95139e-16 -1.30552 -1.79463 -1.47349e-08 19.0994 -7.00482 -3.12092 -2.54264 -6.98552 -0.000923013 1.12139 16.3834 -5.46167 -2.56825 -7.05623 -4.99594e-05 -0.0195846 -10.0835 3.56987 -0.16473 -0.45259 2.36315 2.28602e-15 3.97569e-16 -3.97569e-16 0 0 0 3.72721e-17 7.95139e-16 7.95139e-16 0.02827 2.03559 1.63721e-07 0.307956 1.48379 0.246835 0.05672 2.04885 -0.04275 1.61513e-16 0 3.97569e-16 0 0 0 -4.34841e-17 0 3.97569e-16 -0.05417 1.74624 0.17202 0.226962 0.756394 12.1759 0.10407 1.76136 -0.12397 1.83255e-16 -8.69683e-17 3.18055e-15 0 0 0 -4.34841e-17 0 3.97569e-16 3.36241 1.20089 -0.31121 -81.9145 6.23214 5.48318 4.983 0.000206118 0.000106227 0.385563 -1.36967 -30.5124 3.48356 3.89078e-06 -2.57747e-05 7.32077e-05 -3.97569e-16 0.000417473 0 0 0 -1.39149e-15 1.59028e-15 -0 0.71526 -8.88178e-16 1.66533e-16 -3.97569e-16 7.95139e-16 6.36111e-15 0 0 0 -1.39149e-15 1.59028e-15 -0 0 0 0 -4.34841e-17 0 3.97569e-16 -3.1366 1.37405 -0.40465 82.6925 24.6029 -6.35951 -5.2419 0.000247416 2.58524e-05 -0.524068 -1.14274 27.0739 -3.44417 5.53173e-06 -2.42308e-05 -7.10515e-05 0 -0.00040827 0 0 0 -3.18055e-15 0 6.36111e-15 -0.62253 0 -2.22045e-16 -1.59028e-15 0 6.36111e-15 0 0 0 -3.18055e-15 0 6.36111e-15 
-0.0665773 2.11714 -0.064641 0.790966 -2.336 2.03731 0 0 0 -6.21202e-17 3.97569e-16 -7.95139e-16 1.36306 -1.79463 2.39735e-08 -16.1257 -1.46533 5.05058 2.44814 -6.72612 -0.00015378 -0.539086 6.07792 -0.239173 2.56219 -7.03959 -4.91952e-05 -3.55658 -4.04611 -1.59648 0.15764 -0.43311 2.32255 2.6339e-15 3.97569e-16 -0 0 0 0 -6.21202e-17 3.97569e-16 -7.95139e-16 -1.30552 -1.79463 -1.47349e-08 19.0197 -7.57248 -3.65571 -2.54264 -6.98552 -0.000923013 1.2202 17.3246 -5.73499 -2.56825 -7.05623 -4.99594e-05 -0.11791 -10.5431 3.71924 -0.16473 -0.45259 2.36315 7.04443e-15 -7.95139e-16 -0 0 0 0 -6.21202e-17 3.97569e-16 -7.95139e-16 0.02827 2.03559 1.63721e-07 0.346959 1.67618 0.278873 0.05672 2.04885 -0.04275 -1.98785e-16 9.93923e-17 -0 0 0 0 -1.37935e-33 1.98785e-16 3.97569e-16 -0.05417 1.74624 0.17202 0.233931 0.86608 14.0787 0.10407 1.76136 -0.12397 -1.49089e-16 -7.45443e-17 -3.18055e-15 0 0 0 -1.37935e-33 1.98785e-16 3.97569e-16 3.36241 1.20089 -0.31121 -82.1407 6.24944 5.49841 4.983 0.000206118 0.000106227 0.384763 -1.37279 -30.5972 3.48356 3.89078e-06 -2.57747e-05 6.1769e-05 -1.19271e-15 0.000417331 0 0 0 -7.95139e-16 -1.98785e-15 -6.36111e-15 0.71526 0 0 -2.38542e-15 -1.19271e-15 -0 0 0 0 -7.95139e-16 -1.98785e-15 -6.36111e-15 0 0 0 -1.37935e-33 1.98785e-16 3.97569e-16 -3.1366 1.37405 -0.40465 82.8539 24.6712 -6.37637 -5.2419 0.000247416 2.58524e-05 -0.52402 -1.14542 27.1492 -3.44417 5.53173e-06 -2.42308e-05 -7.49498e-05 -6.36111e-15 -0.000410002 0 0 0 1.59028e-15 0 -0 -0.62253 0 0 1.59028e-15 0 -6.36111e-15 0 0 0 1.59028e-15 0 -0 
-0.0688951 2.11319 -0.0633272 0.796296 -2.35022 2.04974 0 0 0 6.21202e-17 0 7.95139e-16 1.36306 -1.79463 2.39735e-08 -15.228 -2.08698 6.40689 2.44814 -6.72612 -0.00015378 -0.560327 7.01521 -0.558404 2.56219 -7.03959 -4.91952e-05 -4.3659 -4.27415 -1.66637 0.15764 -0.43311 2.32255 8.94531e-16 -3.97569e-16 -7.95139e-16 0 0 0 6.21202e-17 0 7.95139e-16 -1.30552 -1.79463 -1.47349e-08 18.7942 -8.88058 -4.89688 -2.54264 -6.98552 -0.000923013 1.48445 19.4985 -6.3849 -2.56825 -7.05623 -4.99594e-05 -0.335647 -11.606 4.06773 -0.16473 -0.45259 2.36315 4.37326e-15 0 -7.95139e-16 0 0 0 6.21202e-17 0 7.95139e-16 0.02827 2.03559 1.63721e-07 0.436203 2.12048 0.352896 0.05672 2.04885 -0.04275 -3.83592e-16 0 -0 0 0 0 -3.82039e-16 0 3.97569e-16 -0.05417 1.74624 0.17202 0.222987 1.09765 18.2656 0.10407 1.76136 -0.12397 -5.46658e-16 0 -0 0 0 0 -3.82039e-16 0 3.97569e-16 3.36241 1.20089 -0.31121 -82.6464 6.2875 5.5319 4.983 0.000206118 0.000106227 0.382963 -1.37961 -30.7837 3.48356 3.89078e-06 -2.57747e-05 3.66038e-05 -7.95139e-16 0.000416338 0 0 0 1.39149e-15 -3.97569e-16 -3.18055e-15 0.71526 -8.88178e-16 5.55112e-17 1.39149e-15 -7.95139e-16 -0 0 0 0 1.39149e-15 -3.97569e-16 -3.18055e-15 0 0 0 -3.82039e-16 0 3.97569e-16 -3.1366 1.37405 -0.40465 83.2521 24.8215 -6.41356 -5.2419 0.000247416 2.58524e-05 -0.523886 -1.15129 27.3147 -3.44417 5.53173e-06 -2.42308e-05 -8.3526e-05 3.18055e-15 -0.000413814 0 0 0 1.59028e-15 0 3.18055e-15 -0.62253 -4.44089e-16 2.22045e-16 -1.59028e-15 0 -0 0 0 0 1.59028e-15 0 3.18055e-15 
-0.0714706 2.10858 -0.0618374 0.801632 -2.36443 2.06218 0 0 0 -8.69683e-17 0 3.97569e-16 1.36306 -1.79463 2.39735e-08 -14.1977 -2.72272 7.84094 2.44814 -6.72612 -0.00015378 -0.56396 8.03716 -0.920328 2.56219 -7.03959 -4.91952e-05 -5.27201 -4.51563 -1.73637 0.15764 -0.43311 2.32255 -6.21202e-15 7.95139e-16 -7.95139e-16 0 0 0 -8.69683e-17 0 3.97569e-16 -1.30552 -1.79463 -1.47349e-08 18.4733 -10.3388 -6.29657 -2.54264 -6.98552 -0.000923013 1.84241 21.9332 -7.14774 -2.56825 -7.05623 -4.99594e-05 -0.563417 -12.7988 4.4644 -0.16473 -0.45259 2.36315 1.68967e-15 -3.97569e-16 -7.95139e-16 0 0 0 -8.69683e-17 0 3.97569e-16 0.02827 2.03559 1.63721e-07 0.534637 2.61735 0.435748 0.05672 2.04885 -0.04275 1.3977e-17 -4.96962e-17 -0 0 0 0 -1.84808e-16 -4.96962e-17 -0 -0.05417 1.74624 0.17202 0.176581 1.31356 22.4534 0.10407 1.76136 -0.12397 2.98177e-16 1.98785e-16 -3.18055e-15 0 0 0 -1.84808e-16 -4.96962e-17 -0 3.36241 1.20089 -0.31121 -83.1724 6.32555 5.5654 4.983 0.000206118 0.000106227 0.381111 -1.38639 -30.9702 3.48356 3.89078e-06 -2.57747e-05 1.14387e-05 -1.59028e-15 0.000413641 0 0 0 1.98785e-16 1.19271e-15 -0 0.71526 8.88178e-16 1.66533e-16 -1.98785e-16 7.95139e-16 -0 0 0 0 1.98785e-16 1.19271e-15 -0 0 0 0 -1.84808e-16 -4.96962e-17 -0 -3.1366 1.37405 -0.40465 83.7579 24.9717 -6.45088 -5.2419 0.000247416 2.58524e-05 -0.523713 -1.15713 27.4802 -3.44417 5.53173e-06 -2.42308e-05 -9.21022e-05 -3.18055e-15 -0.000417626 0 0 0 1.59028e-15 3.18055e-15 3.18055e-15 -0.62253 4.44089e-16 0 -0 0 3.18055e-15 0 0 0 1.59028e-15 3.18055e-15 3.18055e-15 
-0.0732507 2.10492 -0.0607443 0.804059 -2.3709 2.06783 0 0 0 -2.23633e-16 -7.95139e-16 -0 1.36306 -1.79463 2.39735e-08 -13.4735 -3.05326 8.6731 2.44814 -6.72612 -0.00015378 -0.542727 8.70228 -1.18334 2.56219 -7.03959 -4.91952e-05 -5.91154 -4.65721 -1.76829 0.15764 -0.43311 2.32255 4.72114e-15 0 -1.59028e-15 0 0 0 -2.23633e-16 -7.95139e-16 -0 -1.30552 -1.79463 -1.47349e-08 18.2024 -11.3706 -7.28886 -2.54264 -6.98552 -0.000923013 2.1358 23.6679 -7.71721 -2.56825 -7.05623 -4.99594e-05 -0.713595 -13.6504 4.75178 -0.16473 -0.45259 2.36315 -2.93207e-15 0 -0 0 0 0 -2.23633e-16 -7.95139e-16 -0 0.02827 2.03559 1.63721e-07 0.603116 2.9675 0.494174 0.05672 2.04885 -0.04275 -6.1499e-16 9.93923e-17 -0 0 0 0 -4.06887e-16 9.93923e-17 3.97569e-16 -0.05417 1.74624 0.17202 0.142118 1.4099 24.3574 0.10407 1.76136 -0.12397 0 3.97569e-16 -0 0 0 0 -4.06887e-16 9.93923e-17 3.97569e-16 3.36241 1.20089 -0.31121 -83.4593 6.34284 5.58064 4.983 0.000206118 0.000106227 0.380251 -1.38945 -31.055 3.48356 3.89078e-06 -2.57747e-05 -1.19271e-15 -3.97569e-16 0.00040839 0 0 0 -1.59028e-15 3.97569e-16 -0 0.71526 0 0 1.98785e-16 -7.95139e-16 -0 0 0 0 -1.59028e-15 3.97569e-16 -0 0 0 0 -4.06887e-16 9.93923e-17 3.97569e-16 -3.1366 1.37405 -0.40465 84.2419 25.04 -6.46789 -5.2419 0.000247416 2.58524e-05 -0.523622 -1.15977 27.5555 -3.44417 5.53173e-06 -2.42308e-05 -9.60005e-05 0 -0.000419358 0 0 0 3.53113e-31 -3.18055e-15 6.36111e-15 -0.62253 4.44089e-16 4.44089e-16 -1.59028e-15 0 3.18055e-15 0 0 0 3.53113e-31 -3.18055e-15 6.36111e-15 
-0.0740895 2.10219 -0.0601472 0.803765 -2.3701 2.06714 0 0 0 -2.48481e-16 0 3.97569e-16 1.36306 -1.79463 2.39735e-08 -13.1165 -3.11305 8.92025 2.44814 -6.72612 -0.00015378 -0.511452 8.9785 -1.33131 2.56219 -7.03959 -4.91952e-05 -6.23922 -4.70103 -1.76705 0.15764 -0.43311 2.32255 -2.03754e-15 -3.97569e-16 -0 0 0 0 -2.48481e-16 0 3.97569e-16 -1.30552 -1.79463 -1.47349e-08 18.0491 -11.9164 -7.78583 -2.54264 -6.98552 -0.000923013 2.29577 24.597 -8.03212 -2.56825 -7.05623 -4.99594e-05 -0.785895 -14.1064 4.90795 -0.16473 -0.45259 2.36315 7.65321e-15 -3.97569e-16 -7.95139e-16 0 0 0 -2.48481e-16 0 3.97569e-16 0.02827 2.03559 1.63721e-07 0.637448 3.14471 0.523726 0.05672 2.04885 -0.04275 1.55301e-16 9.93923e-17 -3.97569e-16 0 0 0 1.61513e-16 0 -3.97569e-16 -0.05417 1.74624 0.17202 0.129065 1.4443 21.7952 0.10407 1.76136 -0.12397 0 0 -3.18055e-15 0 0 0 1.61513e-16 0 -3.97569e-16 3.36241 1.20089 -0.31121 -83.4454 6.29184 4.9047 4.983 0.000206118 0.000106227 0.503809 -1.24471 -28.9041 3.48356 3.89078e-06 -2.57747e-05 7.45696e-06 -3.97569e-16 0.000379949 0 0 0 -2.20695e-32 -3.97569e-16 -3.18055e-15 0.71526 -8.88178e-16 2.22045e-16 1.78906e-15 -3.97569e-16 -0 0 0 0 -2.20695e-32 -3.97569e-16 -3.18055e-15 0 0 0 1.61513e-16 0 -3.97569e-16 -3.1366 1.37405 -0.40465 84.4481 24.9969 -5.72893 -5.2419 0.000247416 2.58524e-05 -0.616709 -1.02836 25.7333 -3.44417 5.53173e-06 -2.42308e-05 -9.3524e-05 0 -0.000390877 0 0 0 -1.59028e-15 3.18055e-15 -0 -0.62253 0 2.22045e-16 1.76556e-31 -3.18055e-15 3.18055e-15 0 0 0 -1.59028e-15 3.18055e-15 -0 
